<svg xmlns="http://www.w3.org/2000/svg" viewBox="0 0 549.53 463.77"><defs><style>.cls-1{isolation:isolate;}.cls-2{fill:#754c29;}.cls-3{fill:#c49a6c;mix-blend-mode:multiply;}.cls-4,.cls-5{font-size:130px;font-family:FrenchScriptMT, French Script MT;}.cls-4{fill:#fff;}.cls-5{fill:#231f20;}.cls-6{fill:#f9a44d;}.cls-10,.cls-11,.cls-6,.cls-9{stroke:#231f20;}.cls-10,.cls-11,.cls-12,.cls-15,.cls-6,.cls-9{stroke-miterlimit:10;}.cls-10,.cls-11,.cls-12,.cls-6,.cls-9{stroke-width:4px;}.cls-7{fill:#bc7d38;mix-blend-mode:darken;}.cls-8{fill:#f6b172;mix-blend-mode:lighten;}.cls-9{fill:#fee3ca;}.cls-10{fill:#fff1e7;}.cls-11{fill:#020202;}.cls-12{fill:none;stroke:#764422;}.cls-13{fill:#a56734;}.cls-14{fill:#603913;}.cls-15{fill:#fafdff;stroke:#fdfefe;stroke-linecap:round;stroke-width:1.5px;}</style></defs><title>craft espresso</title><g class="cls-1"><g id="Layer_1" data-name="Layer 1"><path class="cls-2" d="M352.91,251v.38c-.3,48.47-59.58,87.69-132.66,87.69S87.88,299.86,87.58,251.39V251c0-.2,0-.41,0-.61C88.32,111.87,147.44,0,220.25,0S352.18,111.87,352.9,250.4C352.91,250.6,352.91,250.81,352.91,251Z"/><path class="cls-3" d="M228.33,445l-.45,0c-57.7,7.2-108.72-20.85-114.08-62.78s37-81.89,94.64-89.43l.45-.06.72-.08c164.91-20.64,302.37-3.73,307.7,38S393.85,423.47,229.05,444.93Z"/><text class="cls-4" transform="translate(3.83 424.1)">Craft Espresso</text><text class="cls-5" transform="translate(0 424.1)">Craft Espresso</text><polygon class="cls-6" points="352.86 83.88 318.13 279.58 220.25 279.58 185.52 83.88 352.86 83.88"/><polygon class="cls-7" points="190.87 106.44 222.65 283.94 246.36 283.94 237.51 106.44 190.87 106.44"/><polygon class="cls-8" points="335.7 102.43 311.02 277.07 300.57 277.07 314.09 102.43 335.7 102.43"/><polyline class="cls-9" points="336.19 74.28 336.19 60 202.19 60 202.19 74.28"/><polyline class="cls-9" points="338.52 74.03 338.52 95.56 208.4 95.56 208.4 74.03"/><polyline class="cls-10" points="334.19 74.03 362.59 74.03 362.59 106.44 175.79 106.44 175.79 74.03 203.98 74.03"/><rect class="cls-11" x="220.25" y="279.58" width="97.88" height="20.83"/><rect class="cls-10" x="220.25" y="283.95" width="97.88" height="20.83"/><line class="cls-12" x1="189.69" y1="83.88" x2="348.69" y2="83.88"/><circle class="cls-13" cx="269.19" cy="183.91" r="38"/><path class="cls-14" d="M269.19,147.91a36,36,0,1,1-36,36,36,36,0,0,1,36-36m0-4a40,40,0,1,0,40,40,40,40,0,0,0-40-40Z"/><path class="cls-15" d="M267.64,191.85l-.19,6.91a20.11,20.11,0,0,1-9.64,2.29c-9.63,0-16.12-7-16.12-16.69,0-9.55,6.77-16.7,16.07-16.7A18.36,18.36,0,0,1,267,170l.21,6.92h-2.92l-.93-5.47a10,10,0,0,0-5-1.36c-6.43,0-11.64,5-11.64,14.32s4.68,14.31,11.32,14.31a13.18,13.18,0,0,0,5.79-1.32l.93-5.5Z"/><path class="cls-15" d="M296.69,191.85l-.34,8.49H271.69v-1.91l4.44-.52c.1-4,.1-8.19.1-12.36v-2.38c0-4.12,0-8.26-.1-12.37l-4.44-.51v-1.91h23.72l.33,8.49h-2.68L292,170.76H280.61c-.09,4-.09,8.06-.09,12.16h7.17l.66-4.58h2.14v11.32h-2.14l-.62-4.54h-7.21c0,4.55,0,8.73.09,12.84H293l1.07-6.11Z"/></g></g></svg>