<svg xmlns="http://www.w3.org/2000/svg" viewBox="0 0 1613.04 497.36"><defs><style>.cls-1{isolation:isolate;}.cls-2{fill:#fff;}.cls-3{fill:#754c29;}.cls-4{fill:#c49a6c;mix-blend-mode:multiply;}.cls-5{fill:#f9a44d;}.cls-10,.cls-5,.cls-8,.cls-9{stroke:#231f20;}.cls-10,.cls-11,.cls-14,.cls-5,.cls-8,.cls-9{stroke-miterlimit:10;}.cls-10,.cls-11,.cls-5,.cls-8,.cls-9{stroke-width:4px;}.cls-6{fill:#bc7d38;mix-blend-mode:darken;}.cls-7{fill:#f6b172;mix-blend-mode:lighten;}.cls-8{fill:#fee3ca;}.cls-9{fill:#fff1e7;}.cls-10{fill:#020202;}.cls-11{fill:none;stroke:#764422;}.cls-12{fill:#a56734;}.cls-13{fill:#603913;}.cls-14{fill:#fafdff;stroke:#fdfefe;stroke-linecap:round;stroke-width:1.5px;}</style></defs><title>craft espresso</title><g class="cls-1"><g id="Layer_1" data-name="Layer 1"><path class="cls-2" d="M489.67,291.59q-9.07,14-20.91,20.05t-30.12,6.08q-29.56,0-47.41-18.16t-17.85-47.72q0-24.9,12.7-48.57a106.87,106.87,0,0,1,33.36-38q20.67-14.36,41.53-14.35,15.21,0,24.1,8.46t8.9,23.19q0,21.59-15.58,38.7t-33.74,17.11q-9.19,0-15-5.64T423.8,218q0-14.48,16.31-27.24l2.58,3.07q-8.83,5.77-8.83,18.16a16.22,16.22,0,0,0,5.21,12.45,18.62,18.62,0,0,0,13.19,4.84q12.39,0,22-10.73t9.63-25.94q0-14.73-9.08-23.68T450.91,160q-24.78,0-43.92,23.18t-19.13,55.69q0,29.94,17.11,49.87t43.24,19.93q13,0,21.65-4.6t15.76-15.52Z"/><path class="cls-2" d="M547.69,294.53q-13.86,21.84-27.84,21.84-14.36,0-14.35-16.32,0-13.24,12.63-28.82a42.64,42.64,0,0,1-7.85.49,22.45,22.45,0,0,1-7.73-1.48A130.68,130.68,0,0,1,486,296.86l-3.8-3.06a195.76,195.76,0,0,0,20.12-37.91q11.78,5.52,18.52,5.52a14.55,14.55,0,0,0,11-5l2.08,1.47a97.56,97.56,0,0,0-12.11,18.83,47.75,47.75,0,0,0-4.57,20.92,10.94,10.94,0,0,0,2.34,6.68q2.34,3.14,5.18,3.13a13.45,13.45,0,0,0,9-3.8,73.93,73.93,0,0,0,10.23-12Z"/><path class="cls-2" d="M634.42,294.53q-14,21.84-27.35,21.84-5,0-7.24-2.7t-2.33-11.29q-7.37,9.09-12.45,11.84a24,24,0,0,1-11.6,2.76q-9.44,0-15-6.5t-5.58-17.42v-5.27q-1.35,1.71-6.26,8.83l-4.05-2.82q10.8-16.68,22.76-26.19t20.91-9.51a24.17,24.17,0,0,1,12.64,3.8l10.79-5.52v41.71c0,4.42.21,7.07.62,8s1.51,1.35,3.31,1.35q2.32,0,7-4.17a72.8,72.8,0,0,0,10.18-11.9Zm-37.17-1.47V268.4a16,16,0,0,0-11.82-5q-7.39,0-13.3,6.87t-5.91,17.05q0,8.83,4.18,13.68t11.46,4.85q5.65,0,10.53-5.58T597.25,293.06Z"/><path class="cls-2" d="M629.76,292.81q2.32-3.68,4.66-7.78t6.75-13.31q4.41-9.21,4.41-10.55V206.09a37.76,37.76,0,0,1,9.51-25.39q9.51-11,21.65-11,14.35,0,14.35,13.37,0,11.78-6.62,27.35t-26.62,47.23v51.27a21,21,0,0,0,10.43-3.43q4.65-3.06,13.74-16.19l3.8,3.06q-14.24,23.57-28,23.56v42.44q0,14.1-7.79,22.63a25.09,25.09,0,0,1-19.32,8.53q-12.15,0-19-10.55l10-9.94,2,1.72a13,13,0,0,0-.74,3.56,11.57,11.57,0,0,0,3,8,9.68,9.68,0,0,0,7.6,3.31q12,0,12-24.41V315.88a30,30,0,0,1-12.51-5.52,26.33,26.33,0,0,1,5.52-10.55q3.43,5.52,7,6.87V274.17a104.86,104.86,0,0,1-12.26,22Zm28.09-47.22Q681,208.42,681,186.09q0-11.16-8.09-11.16-6,0-10.55,6.32t-4.54,16.62Z"/><path class="cls-2" d="M739.06,294.16q-13.87,22.21-29.32,22.21-7.37,0-9.2-3.48t-1.84-11.15v-29.5a261.22,261.22,0,0,1-16.07,24.26l-4.13-2.88q4.56-6.74,7.76-11.75t7.82-13.16q4.62-8.15,4.62-9.12V209.4l12.27-12v46.56l18.84-29.54,4.83,3.59L711,255.28V293q0,8.61.73,11.49t4,2.89q8.34,0,19.87-16.43Z"/><path class="cls-2" d="M926.86,160.21q-11.64,10.06-28.18,10.06-9.06,0-22-4.54t-20.09-4.54q-11.14,0-17.82,7.36T832,188.06q0,12.63,7.36,20.36a24.51,24.51,0,0,0,18.52,7.73,71.15,71.15,0,0,0,13.74-2l.74,5q-23.37,3-36.59,16.5t-13.22,33.18q0,18.41,10.92,29.57t28.21,11.16a43.33,43.33,0,0,0,31.35-12.88q13.18-12.89,13.18-29.07a29,29,0,0,0-6.62-19.14q-6.63-8-15.7-8A18.91,18.91,0,0,0,870.62,246q-5.83,5.46-5.83,12.33a12.32,12.32,0,0,0,2.88,8.28A8.84,8.84,0,0,0,874.6,270q4.67,0,8.22-4.54l2.83,1.47q-3,13.38-14.85,13.37a12.37,12.37,0,0,1-9.87-4.35q-3.75-4.35-3.74-11.47,0-12.39,10.36-22.2a34.25,34.25,0,0,1,24.35-9.82q11.54,0,18.46,7.42t6.93,18.47q0,21.7-16.86,39.86T857.8,316.37q-23.19,0-37.6-13.44A43.26,43.26,0,0,1,805.79,270q0-15.21,10.27-28t29.23-19.81q-28-6-28-28.34,0-16.56,17-29.75a60.72,60.72,0,0,1,38.21-13.18q8.72,0,22.08,4.54T914.47,160A22.32,22.32,0,0,0,925,156.9Z"/><path class="cls-2" d="M956.42,254.66A38.15,38.15,0,0,1,971.76,269a36.2,36.2,0,0,1,5.76,19,31.13,31.13,0,0,1-6.68,19.87,20.85,20.85,0,0,1-17.11,8.47,22.78,22.78,0,0,1-11.17-3.44,31.21,31.21,0,0,1-10.42-10.06,31.57,31.57,0,0,1,11-10.06l1,1.23a18.84,18.84,0,0,0-.25,3.56,13.7,13.7,0,0,0,3.66,9.38q3.67,4.11,8.3,4.11a11.28,11.28,0,0,0,9.4-4.84q3.68-4.85,3.67-12.21,0-15.21-18-27.11l-10.42,16.44a147.14,147.14,0,0,1-9.08,13.49l-3.8-3.06q12.51-18.53,24.9-45.15l2.94.25Zm42,39.87q-13.12,21.6-33.12,23.43l-.74-2.33a38.32,38.32,0,0,0,15-6.93q6.19-4.84,15.15-17.11Z"/><path class="cls-2" d="M1021,269.75q12.51-12.63,24.41-12.63,9.45,0,15,6.62t5.58,17.54a35.89,35.89,0,0,1-9.14,24.42q-9.13,10.43-20.79,10.42a24.29,24.29,0,0,1-15.09-5v47.23q0,14.6-8.1,22.88a26.58,26.58,0,0,1-19.75,8.28q-12.26,0-19.13-10.55L984,369l2.09,1.72a10.51,10.51,0,0,0-.86,3.56,11.5,11.5,0,0,0,3,7.91,9.67,9.67,0,0,0,7.54,3.37q12.15,0,12.15-24.41V277.48a90.34,90.34,0,0,1-11.54,19.38l-3.55-3.06A98.81,98.81,0,0,0,1008,262.64l13-6.5Zm0,35.09a20.73,20.73,0,0,0,14.84,6q8,0,13.56-6.87t5.58-17.18q0-8.82-4.85-14.1a16,16,0,0,0-12.33-5.28q-9.69,0-16.8,10.31Zm63.54-10.31q-13.5,21.35-35.82,23.92l-1.1-2.82q19.74-4.41,33.24-24Z"/><path class="cls-2" d="M1144.84,294.53Q1131,316.37,1117,316.37q-14.36,0-14.35-16.32,0-13.24,12.63-28.82a42.64,42.64,0,0,1-7.85.49,22.45,22.45,0,0,1-7.73-1.48,130.68,130.68,0,0,1-16.56,26.62l-3.8-3.06a195.76,195.76,0,0,0,20.12-37.91q11.77,5.52,18.52,5.52a14.55,14.55,0,0,0,11-5l2.08,1.47A97.56,97.56,0,0,0,1119,276.68a47.75,47.75,0,0,0-4.57,20.92,10.94,10.94,0,0,0,2.34,6.68q2.34,3.14,5.18,3.13a13.45,13.45,0,0,0,9-3.8,73.93,73.93,0,0,0,10.23-12Z"/><path class="cls-2" d="M1210.47,294.53q-7.24,11.78-15.82,17.11T1172.08,317q-10.18,0-16.14-6.07T1150,293.8a42.38,42.38,0,0,1,.49-6.26q-4.42,5.64-6.75,9.08l-4-2.82q15.94-22.57,24.53-29.63t17.67-7.05a11.88,11.88,0,0,1,8.28,2.94,9.8,9.8,0,0,1,3.25,7.61q0,15.94-28.09,31.4,3.8,8.83,15.82,8.83,5.77,0,12.82-4.17a43,43,0,0,0,12.82-12.14Zm-47.47-.24q20.36-9.94,20.36-22.08a8.81,8.81,0,0,0-2-6,6.84,6.84,0,0,0-5.46-2.33q-6.26,0-10.55,5.76a22.57,22.57,0,0,0-4.29,13.86,24.65,24.65,0,0,0,1,7.49A24.33,24.33,0,0,1,1163,294.29Z"/><path class="cls-2" d="M1233.78,254.66A38.06,38.06,0,0,1,1249.11,269a36.22,36.22,0,0,1,5.77,19,31.08,31.08,0,0,1-6.69,19.87,20.85,20.85,0,0,1-17.11,8.47,22.71,22.71,0,0,1-11.16-3.44,31.14,31.14,0,0,1-10.43-10.06,31.57,31.57,0,0,1,11-10.06l1,1.23a19.91,19.91,0,0,0-.24,3.56,13.65,13.65,0,0,0,3.66,9.38q3.66,4.11,8.3,4.11a11.3,11.3,0,0,0,9.4-4.84,19.68,19.68,0,0,0,3.66-12.21q0-15.21-18-27.11l-10.43,16.44a147.14,147.14,0,0,1-9.08,13.49l-3.8-3.06q12.51-18.53,24.9-45.15l3,.25Zm42,39.87q-13.12,21.6-33.12,23.43l-.74-2.33a38.32,38.32,0,0,0,15-6.93q6.19-4.84,15.15-17.11Z"/><path class="cls-2" d="M1299,254.66A38.06,38.06,0,0,1,1314.37,269a36.22,36.22,0,0,1,5.77,19,31.08,31.08,0,0,1-6.69,19.87,20.85,20.85,0,0,1-17.11,8.47,22.71,22.71,0,0,1-11.16-3.44,31.14,31.14,0,0,1-10.43-10.06,31.57,31.57,0,0,1,11-10.06l1,1.23a18.84,18.84,0,0,0-.25,3.56,13.66,13.66,0,0,0,3.67,9.38q3.66,4.11,8.3,4.11a11.3,11.3,0,0,0,9.4-4.84,19.68,19.68,0,0,0,3.66-12.21q0-15.21-18-27.11l-10.43,16.44a147.14,147.14,0,0,1-9.08,13.49l-3.8-3.06q12.51-18.53,24.9-45.15l3,.25Zm42,39.87q-13.12,21.6-33.12,23.43l-.74-2.33a38.32,38.32,0,0,0,15-6.93q6.19-4.84,15.15-17.11Z"/><path class="cls-2" d="M1335.22,293.8q15.94-22.77,26.13-29.42a38.47,38.47,0,0,1,21.35-6.65q10.66,0,16.74,5.66t6.07,15.73q0,14.38-11.53,26.24t-26.86,11.87q-9.94,0-15.89-6a20.56,20.56,0,0,1-6-15.15,48.33,48.33,0,0,1,.74-8.84,107.46,107.46,0,0,0-6.75,9.57Zm39.87,15.33q9.33,0,14.84-6.75t5.52-17.91q0-9.69-5.15-15.15t-13.61-5.45a17.54,17.54,0,0,0-14.3,6.5q-5.33,6.5-5.33,18.15Q1357.06,309.13,1375.09,309.13Zm44.28-14.6q-9.81,14-18.52,18.46a50.13,50.13,0,0,1-17.42,5.46l-1-2.82q20.23-4.53,32.88-24Z"/><path class="cls-3" d="M319.89,276.58V277c-.3,48.47-59.59,87.69-132.67,87.69S54.86,325.43,54.56,277v-.38c0-.2,0-.41,0-.61.72-138.53,59.85-250.4,132.65-250.4S319.15,137.44,319.87,276C319.89,276.17,319.89,276.38,319.89,276.58Z"/><path class="cls-4" d="M195.31,470.61l-.45.06c-57.71,7.19-108.73-20.86-114.08-62.79s37-81.89,94.64-89.43l.45-.06.72-.08c164.91-20.64,302.36-3.72,307.7,38S360.83,449,196,470.51Z"/><polygon class="cls-5" points="319.84 109.45 285.11 305.16 187.23 305.16 152.5 109.45 319.84 109.45"/><polygon class="cls-6" points="157.84 132.01 189.62 309.52 213.34 309.52 204.49 132.01 157.84 132.01"/><polygon class="cls-7" points="302.67 128 278 302.64 267.54 302.64 281.06 128 302.67 128"/><polyline class="cls-8" points="303.17 99.85 303.17 85.57 169.16 85.57 169.16 99.85"/><polyline class="cls-8" points="305.5 99.6 305.5 121.13 175.38 121.13 175.38 99.6"/><polyline class="cls-9" points="301.17 99.6 329.57 99.6 329.57 132.01 142.77 132.01 142.77 99.6 170.95 99.6"/><rect class="cls-10" x="187.22" y="305.16" width="97.88" height="20.83"/><rect class="cls-9" x="187.22" y="309.52" width="97.88" height="20.83"/><line class="cls-11" x1="156.66" y1="109.45" x2="315.67" y2="109.45"/><circle class="cls-12" cx="236.17" cy="209.48" r="38"/><path class="cls-13" d="M236.17,173.48a36,36,0,1,1-36,36,36,36,0,0,1,36-36m0-4a40,40,0,1,0,40,40,40,40,0,0,0-40-40Z"/><path class="cls-14" d="M234.62,217.42l-.19,6.91a20,20,0,0,1-9.64,2.29c-9.64,0-16.12-7-16.12-16.69,0-9.54,6.77-16.7,16.07-16.7a18.39,18.39,0,0,1,9.2,2.29l.2,6.92h-2.91l-.94-5.47a10.05,10.05,0,0,0-5-1.36c-6.44,0-11.64,5-11.64,14.32s4.67,14.31,11.31,14.31a13.2,13.2,0,0,0,5.8-1.32l.92-5.5Z"/><path class="cls-14" d="M263.67,217.42l-.34,8.49H238.67V224l4.44-.52c.1-4.05.1-8.2.1-12.37v-2.38c0-4.11,0-8.26-.1-12.37l-4.44-.51V194h23.71l.33,8.49H260l-1.06-6.1h-11.4c-.08,4-.08,8-.08,12.16h7.17l.65-4.58h2.14v11.31h-2.14l-.61-4.54H247.5c0,4.55,0,8.74.08,12.84h12.34l1.07-6.11Z"/></g></g></svg>