<svg xmlns="http://www.w3.org/2000/svg" viewBox="0 0 1374.13 497.36"><defs><style>.cls-1{isolation:isolate;}.cls-2{fill:#754c29;}.cls-3{fill:#c49a6c;mix-blend-mode:multiply;}.cls-4{fill:#f9a44d;}.cls-4,.cls-7,.cls-8,.cls-9{stroke:#231f20;}.cls-10,.cls-13,.cls-4,.cls-7,.cls-8,.cls-9{stroke-miterlimit:10;}.cls-10,.cls-4,.cls-7,.cls-8,.cls-9{stroke-width:4px;}.cls-5{fill:#bc7d38;mix-blend-mode:darken;}.cls-6{fill:#f6b172;mix-blend-mode:lighten;}.cls-7{fill:#fee3ca;}.cls-8{fill:#fff1e7;}.cls-9{fill:#020202;}.cls-10{fill:none;stroke:#764422;}.cls-11{fill:#a56734;}.cls-12{fill:#603913;}.cls-13{fill:#fafdff;stroke:#fdfefe;stroke-linecap:round;stroke-width:1.5px;}</style></defs><title>logo2</title><g class="cls-1"><g id="Layer_1" data-name="Layer 1"><path d="M442.1,291.59q-9.09,14-20.92,20.05t-30.11,6.08q-29.56,0-47.41-18.16t-17.85-47.72q0-24.9,12.69-48.57t33.37-38q20.67-14.36,41.52-14.35,15.21,0,24.11,8.46t8.89,23.19q0,21.59-15.58,38.7t-33.73,17.11q-9.21,0-15-5.64T376.22,218q0-14.48,16.32-27.24l2.58,3.07q-8.83,5.77-8.84,18.16a16.22,16.22,0,0,0,5.22,12.45,18.59,18.59,0,0,0,13.18,4.84q12.39,0,22-10.73t9.63-25.94q0-14.73-9.08-23.68T403.33,160q-24.78,0-43.91,23.18t-19.14,55.69q0,29.94,17.11,49.87t43.25,19.93q13,0,21.65-4.6t15.76-15.52Z"/><path d="M500.12,294.53q-13.86,21.84-27.85,21.84-14.34,0-14.35-16.32,0-13.24,12.64-28.82a42.72,42.72,0,0,1-7.85.49,22.41,22.41,0,0,1-7.73-1.48,130.68,130.68,0,0,1-16.56,26.62l-3.81-3.06a194.68,194.68,0,0,0,20.12-37.91q11.77,5.52,18.52,5.52a14.56,14.56,0,0,0,11.05-5l2.08,1.47a97.56,97.56,0,0,0-12.11,18.83,47.61,47.61,0,0,0-4.57,20.92,10.94,10.94,0,0,0,2.34,6.68q2.34,3.14,5.17,3.13a13.45,13.45,0,0,0,9-3.8,74.43,74.43,0,0,0,10.23-12Z"/><path d="M586.85,294.53q-14,21.84-27.36,21.84-5,0-7.24-2.7t-2.33-11.29q-7.35,9.09-12.45,11.84A23.92,23.92,0,0,1,525.88,317q-9.45,0-15-6.5t-5.58-17.42v-5.27q-1.35,1.71-6.25,8.83l-4-2.82q10.78-16.68,22.75-26.19t20.92-9.51a24.14,24.14,0,0,1,12.63,3.8l10.8-5.52v41.71c0,4.42.2,7.07.61,8s1.51,1.35,3.31,1.35q2.34,0,7-4.17a72.79,72.79,0,0,0,10.19-11.9Zm-37.17-1.47V268.4a16,16,0,0,0-11.82-5q-7.4,0-13.31,6.87t-5.91,17.05q0,8.83,4.19,13.68t11.45,4.85q5.67,0,10.53-5.58T549.68,293.06Z"/><path d="M582.18,292.81q2.34-3.68,4.66-7.78t6.75-13.31q4.42-9.21,4.42-10.55V206.09a37.8,37.8,0,0,1,9.5-25.39q9.51-11,21.66-11,14.34,0,14.35,13.37,0,11.78-6.63,27.35t-26.62,47.23v51.27a21,21,0,0,0,10.43-3.43q4.66-3.06,13.74-16.19l3.8,3.06q-14.22,23.57-28,23.56v42.44q0,14.1-7.78,22.63a25.12,25.12,0,0,1-19.32,8.53q-12.15,0-19-10.55L574.21,369l2,1.72a12.9,12.9,0,0,0-.73,3.56,11.61,11.61,0,0,0,2.94,8,9.7,9.7,0,0,0,7.61,3.31q12,0,12-24.41V315.88a30,30,0,0,1-12.51-5.52A26.08,26.08,0,0,1,591,299.81q3.42,5.52,7,6.87V274.17a104.45,104.45,0,0,1-12.27,22Zm28.09-47.22q23.19-37.17,23.19-59.5,0-11.16-8.1-11.16-6,0-10.55,6.32t-4.54,16.62Z"/><path d="M691.48,294.16q-13.86,22.21-29.32,22.21-7.35,0-9.2-3.48t-1.84-11.15v-29.5a259.22,259.22,0,0,1-16.07,24.26l-4.12-2.88q4.55-6.74,7.75-11.75t7.82-13.16q4.62-8.15,4.62-9.12V209.4l12.27-12v46.56l18.84-29.54,4.84,3.59-23.68,37.29V293q0,8.61.74,11.49t4,2.89q8.36,0,19.88-16.43Z"/><path d="M879.29,160.21q-11.64,10.06-28.18,10.06-9.08,0-22.05-4.54T809,161.19q-11.16,0-17.83,7.36t-6.68,19.51q0,12.63,7.37,20.36a24.5,24.5,0,0,0,18.52,7.73,71.26,71.26,0,0,0,13.74-2l.73,5q-23.36,3-36.58,16.5T775,268.89q0,18.41,10.92,29.57t28.21,11.16a43.31,43.31,0,0,0,31.34-12.88q13.18-12.89,13.19-29.07a29,29,0,0,0-6.63-19.14q-6.62-8-15.7-8A18.93,18.93,0,0,0,823,246q-5.82,5.46-5.82,12.33a12.32,12.32,0,0,0,2.88,8.28A8.81,8.81,0,0,0,827,270q4.66,0,8.22-4.54l2.82,1.47q-2.94,13.38-14.84,13.37a12.4,12.4,0,0,1-9.88-4.35q-3.74-4.35-3.74-11.47,0-12.39,10.37-22.2a34.23,34.23,0,0,1,24.35-9.82q11.52,0,18.46,7.42t6.93,18.47q0,21.7-16.87,39.86t-42.62,18.16q-23.19,0-37.6-13.44A43.27,43.27,0,0,1,758.21,270q0-15.21,10.28-28t29.22-19.81q-28-6-28-28.34,0-16.56,17-29.75A60.76,60.76,0,0,1,825,150.89q8.7,0,22.08,4.54T866.9,160a22.35,22.35,0,0,0,10.55-3.07Z"/><path d="M908.85,254.66A38.06,38.06,0,0,1,924.18,269,36.13,36.13,0,0,1,930,288a31.08,31.08,0,0,1-6.69,19.87,20.84,20.84,0,0,1-17.11,8.47A22.74,22.74,0,0,1,895,312.93a31.23,31.23,0,0,1-10.43-10.06,31.74,31.74,0,0,1,11-10.06l1,1.23a19.91,19.91,0,0,0-.24,3.56A13.7,13.7,0,0,0,900,307q3.66,4.11,8.3,4.11a11.28,11.28,0,0,0,9.4-4.84A19.68,19.68,0,0,0,921.36,294q0-15.21-18-27.11L892.9,283.37a147.69,147.69,0,0,1-9.07,13.49L880,293.8q12.51-18.53,24.9-45.15l3,.25Zm41.95,39.87q-13.12,21.6-33.12,23.43l-.73-2.33a38.34,38.34,0,0,0,15-6.93q6.19-4.84,15.15-17.11Z"/><path d="M973.37,269.75q12.51-12.63,24.42-12.63,9.44,0,15,6.62t5.58,17.54a35.84,35.84,0,0,1-9.14,24.42q-9.13,10.43-20.79,10.42a24.33,24.33,0,0,1-15.09-5v47.23q0,14.6-8.09,22.88a26.58,26.58,0,0,1-19.75,8.28q-12.27,0-19.14-10.55L936.45,369l2.09,1.72a10.28,10.28,0,0,0-.86,3.56,11.53,11.53,0,0,0,3,7.91,9.69,9.69,0,0,0,7.55,3.37q12.13,0,12.14-24.41V277.48a90.3,90.3,0,0,1-11.53,19.38l-3.56-3.06a98.39,98.39,0,0,0,15.09-31.16l13-6.5Zm0,35.09a20.75,20.75,0,0,0,14.85,6q8,0,13.55-6.87t5.58-17.18q0-8.82-4.84-14.1a16,16,0,0,0-12.33-5.28q-9.69,0-16.81,10.31Zm63.55-10.31q-13.5,21.35-35.82,23.92l-1.11-2.82q19.75-4.41,33.25-24Z"/><path d="M1097.27,294.53q-13.86,21.84-27.85,21.84-14.34,0-14.35-16.32,0-13.24,12.64-28.82a42.72,42.72,0,0,1-7.85.49,22.41,22.41,0,0,1-7.73-1.48,130.68,130.68,0,0,1-16.56,26.62l-3.81-3.06a194.68,194.68,0,0,0,20.12-37.91q11.77,5.52,18.52,5.52a14.56,14.56,0,0,0,11-5l2.08,1.47a97.08,97.08,0,0,0-12.11,18.83,47.61,47.61,0,0,0-4.57,20.92,10.94,10.94,0,0,0,2.34,6.68q2.34,3.14,5.17,3.13a13.47,13.47,0,0,0,9-3.8,74.94,74.94,0,0,0,10.23-12Z"/><path d="M1162.9,294.53q-7.25,11.78-15.83,17.11T1124.5,317q-10.18,0-16.13-6.07t-5.95-17.11a42.38,42.38,0,0,1,.49-6.26q-4.41,5.64-6.74,9.08l-4.05-2.82q15.95-22.57,24.53-29.63t17.66-7.05a11.85,11.85,0,0,1,8.28,2.94,9.81,9.81,0,0,1,3.26,7.61q0,15.94-28.1,31.4,3.81,8.83,15.83,8.83,5.76,0,12.82-4.17a43.14,43.14,0,0,0,12.82-12.14Zm-47.48-.24q20.37-9.94,20.37-22.08a8.82,8.82,0,0,0-2-6,6.84,6.84,0,0,0-5.46-2.33q-6.25,0-10.55,5.76a22.57,22.57,0,0,0-4.29,13.86,25,25,0,0,0,1,7.49A22.74,22.74,0,0,1,1115.42,294.29Z"/><path d="M1186.2,254.66A38.15,38.15,0,0,1,1201.54,269a36.2,36.2,0,0,1,5.76,19,31.13,31.13,0,0,1-6.68,19.87,20.87,20.87,0,0,1-17.12,8.47,22.77,22.77,0,0,1-11.16-3.44,31.23,31.23,0,0,1-10.43-10.06,31.74,31.74,0,0,1,11-10.06l1,1.23a18.84,18.84,0,0,0-.25,3.56,13.7,13.7,0,0,0,3.66,9.38q3.66,4.11,8.3,4.11a11.28,11.28,0,0,0,9.4-4.84,19.68,19.68,0,0,0,3.66-12.21q0-15.21-18-27.11l-10.42,16.44a147.14,147.14,0,0,1-9.08,13.49l-3.8-3.06q12.51-18.53,24.9-45.15l2.94.25Zm42,39.87Q1215,316.13,1195,318l-.74-2.33a38.32,38.32,0,0,0,15-6.93q6.18-4.84,15.15-17.11Z"/><path d="M1251.46,254.66A38.15,38.15,0,0,1,1266.8,269a36.2,36.2,0,0,1,5.76,19,31.13,31.13,0,0,1-6.68,19.87,20.87,20.87,0,0,1-17.12,8.47,22.77,22.77,0,0,1-11.16-3.44,31.23,31.23,0,0,1-10.43-10.06,31.74,31.74,0,0,1,11-10.06l1,1.23a18.84,18.84,0,0,0-.25,3.56,13.7,13.7,0,0,0,3.66,9.38q3.66,4.11,8.3,4.11a11.28,11.28,0,0,0,9.4-4.84A19.68,19.68,0,0,0,1264,294q0-15.21-18-27.11l-10.42,16.44a149.3,149.3,0,0,1-9.08,13.49l-3.8-3.06q12.51-18.53,24.9-45.15l2.94.25Zm42,39.87q-13.14,21.6-33.12,23.43l-.74-2.33a38.32,38.32,0,0,0,15-6.93q6.18-4.84,15.15-17.11Z"/><path d="M1287.65,293.8q15.94-22.77,26.13-29.42a38.46,38.46,0,0,1,21.34-6.65q10.68,0,16.75,5.66t6.07,15.73q0,14.38-11.53,26.24t-26.87,11.87q-9.93,0-15.88-6a20.52,20.52,0,0,1-6-15.15,48.38,48.38,0,0,1,.73-8.84,110.39,110.39,0,0,0-6.74,9.57Zm39.87,15.33q9.32,0,14.84-6.75t5.52-17.91q0-9.69-5.15-15.15t-13.62-5.45a17.52,17.52,0,0,0-14.29,6.5q-5.34,6.5-5.34,18.15Q1309.48,309.13,1327.52,309.13Zm44.28-14.6q-9.81,14-18.52,18.46a50.19,50.19,0,0,1-17.42,5.46l-1-2.82q20.23-4.53,32.87-24Z"/><path class="cls-2" d="M272.32,276.58V277c-.31,48.47-59.59,87.69-132.67,87.69S7.29,325.43,7,277v-.38c0-.2,0-.41,0-.61.72-138.53,59.84-250.4,132.65-250.4S271.58,137.44,272.3,276C272.32,276.17,272.32,276.38,272.32,276.58Z"/><path class="cls-3" d="M147.73,470.61l-.45.06c-57.7,7.19-108.72-20.86-114.07-62.79s37-81.89,94.63-89.43l.45-.06.73-.08c164.9-20.64,302.36-3.72,307.69,38S313.25,449,148.45,470.51Z"/><polygon class="cls-4" points="272.26 109.45 237.53 305.16 139.65 305.16 104.92 109.45 272.26 109.45"/><polygon class="cls-5" points="110.27 132.01 142.05 309.52 165.76 309.52 156.91 132.01 110.27 132.01"/><polygon class="cls-6" points="255.1 128 230.42 302.64 219.97 302.64 233.49 128 255.1 128"/><polyline class="cls-7" points="255.59 99.85 255.59 85.57 121.59 85.57 121.59 99.85"/><polyline class="cls-7" points="257.92 99.6 257.92 121.13 127.8 121.13 127.8 99.6"/><polyline class="cls-8" points="253.59 99.6 281.99 99.6 281.99 132.01 95.19 132.01 95.19 99.6 123.38 99.6"/><rect class="cls-9" x="139.65" y="305.16" width="97.88" height="20.83"/><rect class="cls-8" x="139.65" y="309.52" width="97.88" height="20.83"/><line class="cls-10" x1="109.09" y1="109.45" x2="268.09" y2="109.45"/><circle class="cls-11" cx="188.59" cy="209.48" r="38"/><path class="cls-12" d="M188.59,173.48a36,36,0,1,1-36,36,36,36,0,0,1,36-36m0-4a40,40,0,1,0,40,40,40.05,40.05,0,0,0-40-40Z"/><path class="cls-13" d="M187,217.42l-.19,6.91a20,20,0,0,1-9.63,2.29c-9.64,0-16.13-7-16.13-16.69,0-9.54,6.78-16.7,16.07-16.7a18.42,18.42,0,0,1,9.21,2.29l.2,6.92h-2.92l-.93-5.47a10.08,10.08,0,0,0-5-1.36c-6.44,0-11.64,5-11.64,14.32s4.67,14.31,11.31,14.31a13.23,13.23,0,0,0,5.8-1.32l.92-5.5Z"/><path class="cls-13" d="M216.09,217.42l-.34,8.49H191.09V224l4.45-.52c.09-4.05.09-8.2.09-12.37v-2.38c0-4.11,0-8.26-.09-12.37l-4.45-.51V194h23.72l.33,8.49h-2.67l-1.06-6.1H200c-.09,4-.09,8-.09,12.16h7.17l.66-4.58h2.14v11.31h-2.14l-.62-4.54h-7.21c0,4.55,0,8.74.09,12.84h12.34l1.07-6.11Z"/></g></g></svg>